<svg xmlns="http://www.w3.org/2000/svg" width="31.5" height="31.5" viewBox="0 0 31.5 31.5">
  <g id="Icon_ionic-md-options" data-name="Icon ionic-md-options" transform="translate(-2.25 -2.25)">
    <g id="Group_5" data-name="Group 5">
      <path id="Path_9" data-name="Path 9" d="M2.25,27H21.375v2.25H2.25Z"/>
      <path id="Path_10" data-name="Path 10" d="M28.125,27H33.75v2.25H28.125Z"/>
      <path id="Path_11" data-name="Path 11" d="M27,31.465a2.268,2.268,0,0,1-2.25,2.285h0a2.268,2.268,0,0,1-2.25-2.285v-6.68A2.268,2.268,0,0,1,24.75,22.5h0A2.268,2.268,0,0,1,27,24.785Z"/>
    </g>
    <g id="Group_6" data-name="Group 6">
      <path id="Path_12" data-name="Path 12" d="M2.25,16.875H7.875v2.25H2.25Z"/>
      <path id="Path_13" data-name="Path 13" d="M14.625,16.875H33.75v2.25H14.625Z"/>
      <path id="Path_14" data-name="Path 14" d="M13.5,21.34a2.268,2.268,0,0,1-2.25,2.285h0A2.268,2.268,0,0,1,9,21.34V14.66a2.268,2.268,0,0,1,2.25-2.285h0A2.268,2.268,0,0,1,13.5,14.66Z"/>
    </g>
    <g id="Group_7" data-name="Group 7">
      <path id="Path_15" data-name="Path 15" d="M2.25,6.75H21.375V9H2.25Z"/>
      <path id="Path_16" data-name="Path 16" d="M28.125,6.75H33.75V9H28.125Z"/>
      <path id="Path_17" data-name="Path 17" d="M27,11.215A2.268,2.268,0,0,1,24.75,13.5h0a2.268,2.268,0,0,1-2.25-2.285V4.535A2.268,2.268,0,0,1,24.75,2.25h0A2.268,2.268,0,0,1,27,4.535Z"/>
    </g>
  </g>
</svg>
